<?xml version="1.0" encoding="iso-8859-1"?>
<!-- Uploaded to: SVG Repo, www.svgrepo.com, Generator: SVG Repo Mixer Tools -->
<svg version="1.1" id="Layer_1" xmlns="http://www.w3.org/2000/svg" xmlns:xlink="http://www.w3.org/1999/xlink" 
	 viewBox="0 0 512 512" xml:space="preserve">
<rect x="337.582" y="77.363" style="fill:#FEDC3D;" width="56.264" height="56.264"/>
<rect x="61.89" y="77.363" style="fill:#FFF1B1;" width="298.198" height="56.264"/>
<path style="fill:#4D4D4D;" d="M393.846,0h-33.758v88.615h33.758c9.284,0,16.879-7.596,16.879-16.879V16.879
	C410.725,7.596,403.13,0,393.846,0z"/>
<path style="fill:#737373;" d="M376.967,16.879v54.857c0,9.284-7.596,16.879-16.879,16.879H61.89
	c-9.284,0-16.879-7.596-16.879-16.879V16.879C45.011,7.596,52.607,0,61.89,0h298.198C369.371,0,376.967,7.596,376.967,16.879z"/>
<line style="fill:none;stroke:#4D4D4D;stroke-width:15;stroke-linecap:round;stroke-linejoin:round;stroke-miterlimit:10;" x1="78.769" y1="33.758" x2="228.431" y2="33.758"/>
<circle style="fill:#4D4D4D;" cx="262.189" cy="33.758" r="8.44"/>
<rect x="337.582" y="199.736" style="fill:#FEDC3D;" width="56.264" height="56.264"/>
<rect x="61.89" y="199.736" style="fill:#FFF1B1;" width="298.198" height="56.264"/>
<path style="fill:#4D4D4D;" d="M393.846,122.374h-33.758v88.615h33.758c9.284,0,16.879-7.596,16.879-16.879v-54.857
	C410.725,129.969,403.13,122.374,393.846,122.374z"/>
<path style="fill:#737373;" d="M376.967,139.253v54.857c0,9.284-7.596,16.879-16.879,16.879H61.89
	c-9.284,0-16.879-7.596-16.879-16.879v-54.857c0-9.284,7.596-16.879,16.879-16.879h298.198
	C369.371,122.374,376.967,129.969,376.967,139.253z"/>
<line style="fill:none;stroke:#4D4D4D;stroke-width:15;stroke-linecap:round;stroke-linejoin:round;stroke-miterlimit:10;" x1="78.769" y1="156.132" x2="228.431" y2="156.132"/>
<circle style="fill:#4D4D4D;" cx="262.189" cy="156.132" r="8.44"/>
<rect x="337.582" y="322.11" style="fill:#FEDC3D;" width="56.264" height="56.264"/>
<rect x="61.89" y="322.11" style="fill:#FFF1B1;" width="298.198" height="56.264"/>
<path style="fill:#4D4D4D;" d="M393.846,244.747h-33.758v88.615h33.758c9.284,0,16.879-7.596,16.879-16.879v-54.857
	C410.725,252.343,403.13,244.747,393.846,244.747z"/>
<path style="fill:#737373;" d="M376.967,261.626v54.857c0,9.284-7.596,16.879-16.879,16.879H61.89
	c-9.284,0-16.879-7.596-16.879-16.879v-54.857c0-9.284,7.596-16.879,16.879-16.879h298.198
	C369.371,244.747,376.967,252.343,376.967,261.626z"/>
<line style="fill:none;stroke:#4D4D4D;stroke-width:15;stroke-linecap:round;stroke-linejoin:round;stroke-miterlimit:10;" x1="78.769" y1="278.505" x2="228.431" y2="278.505"/>
<g>
	<circle style="fill:#4D4D4D;" cx="262.189" cy="278.505" r="8.44"/>
	<path style="fill:#4D4D4D;" d="M393.846,367.12h-33.758v88.615h33.758c9.284,0,16.879-7.596,16.879-16.879v-54.857
		C410.725,374.715,403.13,367.12,393.846,367.12z"/>
</g>
<path style="fill:#737373;" d="M376.967,383.999v54.857c0,9.284-7.596,16.879-16.879,16.879H61.89
	c-9.284,0-16.879-7.596-16.879-16.879v-54.857c0-9.284,7.596-16.879,16.879-16.879h298.198
	C369.371,367.12,376.967,374.715,376.967,383.999z"/>
<line style="fill:none;stroke:#4D4D4D;stroke-width:15;stroke-linecap:round;stroke-linejoin:round;stroke-miterlimit:10;" x1="78.769" y1="400.879" x2="208.176" y2="400.879"/>
<path style="fill:#DCDCDC;" d="M354.462,286.945V512c62.149,0,112.527-50.379,112.527-112.527S416.611,286.945,354.462,286.945z"/>
<path style="fill:#EEEEEE;" d="M354.462,286.945c43.503,0,78.769,50.379,78.769,112.527S397.965,512,354.462,512
	c-62.149,0-112.527-50.379-112.527-112.527S292.313,286.945,354.462,286.945z"/>
<path style="fill:#4D4D4D;" d="M391.033,385.969h-16.879v-34.321c0-10.432-8.282-18.004-19.692-18.004
	c-10.858,0-19.692,8.835-19.692,19.692v32.633H317.89v-32.633c0-20.165,16.406-36.571,36.571-36.571
	c20.849,0,36.571,14.997,36.571,34.884V385.969z"/>
<path style="fill:#737373;" d="M388.782,374.716h-25.6v85.521h25.6c9.284,0,16.879-7.596,16.879-16.879v-51.763
	C405.662,382.312,398.066,374.716,388.782,374.716z"/>
<path style="fill:#969696;" d="M380.062,391.596v51.763c0,9.284-7.596,16.879-16.879,16.879h-43.042
	c-9.284,0-16.879-7.596-16.879-16.879v-51.763c0-9.284,7.596-16.879,16.879-16.879h43.042
	C372.466,374.716,380.062,382.312,380.062,391.596z"/>
<path style="fill:#272727;" d="M354.462,434.356c-4.661,0-8.44-3.779-8.44-8.44v-16.879c0-4.661,3.779-8.44,8.44-8.44
	s8.44,3.779,8.44,8.44v16.879C362.901,430.577,359.122,434.356,354.462,434.356z"/>
</svg>