<?xml version="1.0" ?>
<!-- Uploaded to: SVG Repo, www.svgrepo.com, Generator: SVG Repo Mixer Tools -->
<svg width="800px" height="800px" viewBox="0 0 512 512" baseProfile="tiny" overflow="visible" version="1.1" xml:space="preserve" xmlns="http://www.w3.org/2000/svg" xmlns:xlink="http://www.w3.org/1999/xlink">
<g id="Layer_1"/>
<g id="Layer_2"/>
<g id="Layer_3"/>
<g id="Layer_4"/>
<g id="Layer_5"/>
<g id="Layer_6"/>
<g id="Layer_7"/>
<g id="Layer_8"/>
<g id="Layer_9"/>
<g id="Layer_10"/>
<g id="Layer_11"/>
<g id="Layer_12"/>
<g id="Layer_13"/>
<g id="Layer_14"/>
<g id="Layer_15"/>
<g id="Layer_16"/>
<g id="Layer_17"/>
<g id="Layer_18"/>
<g id="Layer_19"/>
<g id="Layer_20"/>
<g id="Layer_21"/>
<g id="Layer_22"/>
<g id="Layer_23"/>
<g id="Layer_24"/>
<g id="Layer_25"/>
<g id="Layer_26"/>
<g id="Layer_27"/>
<g id="Layer_28"/>
<g id="Layer_29"/>
<g id="Layer_30"/>
<g id="Layer_31"/>
<g id="Layer_32"/>
<g id="Layer_33"/>
<g id="Layer_34"/>
<g id="Layer_35"/>
<g id="Layer_36"/>
<g id="Layer_37"/>
<g id="Layer_38"/>
<g id="Layer_39"/>
<g id="Layer_40"/>
<g id="Layer_41"/>
<g id="Layer_42"/>
<g id="Layer_43"/>
<g id="Layer_44"/>
<g id="Layer_45"/>
<g id="Layer_46"/>
<g id="Layer_47"/>
<g id="Layer_48"/>
<g id="Layer_49"/>
<g id="Layer_50">
<g>
<ellipse cx="254.866" cy="241.499" fill="#FFA83F" rx="103.236" ry="234"/>
<path d="M254.866,7.499c-3.374,0-6.709,0.379-10,1.096c52.323,11.401,93.236,111.317,93.236,232.904    c0,121.587-40.913,221.503-93.236,232.904c3.291,0.717,6.626,1.096,10,1.096c57.016,0,103.236-104.766,103.236-234    S311.882,7.499,254.866,7.499z" fill="#FF9C20"/>
<path d="M271.263,496.697c0.607-30.709-1.113-231.546-148.294-265.355c-3.011-0.692-5.923,1.504-6.099,4.588    c-2.408,42.177-10.583,299.099,150.4,265.56C269.555,501.015,271.217,499.03,271.263,496.697z" fill="#59C230"/>
<path d="M122.969,231.342c-2.765-0.635-5.441,1.168-5.997,3.855c133.283,42.939,134.877,231.797,134.29,261.5    c-0.046,2.333-1.708,4.318-3.992,4.794c-6.043,1.259-11.842,2.101-17.417,2.568c11.328,1.026,23.762,0.277,37.417-2.568    c2.284-0.476,3.946-2.461,3.992-4.794C271.869,465.988,270.149,265.151,122.969,231.342z" fill="#4EB229"/>
<path d="M240.737,496.697c-0.607-30.709,1.113-231.546,148.294-265.355c3.011-0.692,5.923,1.504,6.099,4.588    c2.408,42.177,10.583,299.099-150.4,265.56C242.445,501.015,240.783,499.03,240.737,496.697z" fill="#59C230"/>
<path d="M395.13,235.931c-0.176-3.084-3.089-5.28-6.099-4.588c-4.824,1.108-9.487,2.4-14.003,3.855    c0.049,0.239,0.088,0.482,0.103,0.733c2.204,38.6,9.234,257.053-112.983,268.128C405.103,516.038,397.448,276.525,395.13,235.931z    " fill="#4EB229"/>
</g>
<g>
<g>
<path d="M358.095,249.23c-4.143,0-7.5-3.357-7.5-7.5v-0.23c0-61.483-10.512-119.169-29.598-162.435     c-17.962-40.714-42.066-64.066-66.132-64.066c-24.013,0-48.079,23.261-66.029,63.819     c-19.069,43.091-29.621,100.593-29.712,161.913c-0.006,4.139-3.363,7.489-7.5,7.489c-0.004,0-0.007,0-0.011,0     c-4.143-0.006-7.495-3.369-7.489-7.511c0.094-63.358,11.102-123.007,30.995-167.962c20.762-46.912,49.082-72.748,79.745-72.748     c30.725,0,59.085,25.93,79.856,73.012c19.909,45.13,30.874,104.968,30.874,168.489v0.23     C365.595,245.873,362.237,249.23,358.095,249.23z"/>
</g>
<g>
<path d="M239.672,511.993c-27.133,0.001-50.548-9.015-69.787-26.908c-28.817-26.802-47.8-72.945-56.423-137.148     c-6.653-49.532-5.073-95.129-4.086-112.435c0.216-3.69,2.032-7.071,4.984-9.286c2.946-2.212,6.691-3.01,10.278-2.187     c10.461,2.401,20.548,5.703,29.982,9.815c28.472,12.357,52.639,32.552,71.819,60.016c15.553,22.269,27.925,49.447,36.774,80.782     c1.126,3.986-1.193,8.13-5.18,9.256c-3.979,1.127-8.13-1.192-9.256-5.18c-18.72-66.287-52.411-110.402-100.139-131.119     c-7.722-3.365-15.929-6.136-24.445-8.255c-1.775,35.418-4.863,178.234,55.907,234.756c19.789,18.403,45.001,25.762,74.916,21.863     c0.321-0.042,0.645-0.062,0.969-0.062c4.143,0,7.505,3.357,7.505,7.5c0,3.873-2.932,7.06-6.697,7.458     C250.932,511.616,245.224,511.993,239.672,511.993z"/>
</g>
<g>
<path d="M272.326,511.999c-9.28,0-18.995-1.054-29.131-3.165c-5.749-1.197-9.846-6.127-9.961-11.988h-0.001     c-0.325-16.499,0.088-74.921,19.086-133.961c10.977-34.11,26.349-62.724,45.691-85.047     c23.891-27.572,53.947-45.675,89.337-53.804c3.589-0.824,7.339-0.028,10.288,2.186c2.952,2.216,4.767,5.6,4.978,9.283     c1.012,17.706,2.608,64.316-4.382,114.618c-9.082,65.365-29,111.703-59.201,137.725     C320.371,503.921,298.017,511.999,272.326,511.999z M248.199,494.541c32.526,6.326,59.782,0.255,81.039-18.06     c63.487-54.703,60.374-200.944,58.559-237.134c-57.684,14.34-98.449,57.432-121.199,128.131     C249.014,422.125,247.973,476.312,248.199,494.541z M248.23,496.535c0,0.005,0,0.009,0,0.014c0,0.001,0.001,0.001,0.001,0.001     C248.23,496.545,248.23,496.54,248.23,496.535z"/>
</g>
</g>
</g>
</svg>