<svg viewBox="0 0 512 512" xmlns="http://www.w3.org/2000/svg"><rect fill="#fff" height="512" rx="15%" width="512"/><g fill-rule="evenodd"><path d="m255.997 107.626 192.003 111.054v118.523l-192.003-111.05z" fill="#37beff"/><path d="m255.997 107.626-191.997 111.054v118.523l191.997-111.05z" fill="#404f54"/><path d="m255.997 63.74c73.34 0 132.815 59.556 132.815 132.994s-59.476 132.996-132.815 132.996-132.817-59.557-132.817-132.995 59.477-132.995 132.817-132.995" fill="#ccc"/><path d="m255.997 63.74c73.366 0 132.862 59.556 132.862 132.994s-59.496 132.996-132.862 132.996c-42.112-28.38-59.536-85.557-59.536-132.92s17.424-104.635 59.536-133.07" fill="#e5e5e5"/><path d="m255.997 448.26 192.003-111.056v-118.524l-192.003 111.05z" fill="#37beff"/><path d="m255.997 448.26-191.997-111.056v-118.524l191.997 111.05z" fill="#404f54"/></g></svg>