<?xml version="1.0" encoding="iso-8859-1"?>
<!-- Uploaded to: SVG Repo, www.svgrepo.com, Generator: SVG Repo Mixer Tools -->
<svg height="800px" width="800px" version="1.1" id="Layer_1" xmlns="http://www.w3.org/2000/svg" xmlns:xlink="http://www.w3.org/1999/xlink" 
	 viewBox="0 0 512 512" xml:space="preserve">
<polygon style="fill:#CFDCE5;" points="151.248,330.304 151.248,22.936 12.72,86.44 12.72,408.64 "/>
<polygon style="fill:#DDE8ED;" points="280.696,97.064 280.696,402.224 151.248,330.304 151.248,22.936 "/>
<polygon style="fill:#CFDCE5;" points="408.16,14.968 280.696,97.064 280.696,402.224 408.16,326.544 "/>
<g>
	<path style="fill:#E04F5F;" d="M18.072,286.24l12.864,49.352c2.808,10.832,5.416,20.88,7.2,30.912h0.592
		c2.192-9.824,5.416-20.264,8.616-30.704l15.896-49.56h14.808l15.056,48.552c3.608,11.632,6.4,21.864,8.616,31.712h0.592
		c1.896-10.64,4.384-21.168,7.448-31.536l13.824-48.76h17.48l-31.28,97.16h-16.08l-14.872-46.36
		c-3.416-10.48-6.296-21.12-8.616-31.896H69.8c-2.304,10.856-5.248,21.568-8.8,32.08l-15.688,46.152h-16L0,286.24H18.072z"/>
	<path style="fill:#E04F5F;" d="M168.04,286.24l12.864,49.352c2.808,10.832,5.416,20.88,7.2,30.912h0.592
		c2.192-9.824,5.416-20.264,8.616-30.704l15.856-49.56h14.872l15.056,48.552c3.608,11.632,6.4,21.864,8.616,31.712h0.592
		c1.896-10.64,4.384-21.168,7.448-31.536l13.824-48.76h17.48l-31.28,97.104h-16.064l-14.872-46.328
		c-3.416-10.48-6.296-21.12-8.616-31.896h-0.408c-2.304,10.856-5.248,21.568-8.8,32.08l-15.696,46.16h-16l-29.352-97.112h18.072
		L168.04,286.24L168.04,286.24z"/>
	<path style="fill:#E04F5F;" d="M318.112,286.24l12.8,49.352c2.808,10.832,5.416,20.88,7.2,30.912h0.592
		c2.192-9.824,5.456-20.264,8.656-30.704l15.88-49.56h14.872l15.056,48.552c3.608,11.632,6.4,21.864,8.616,31.712h0.592
		c1.88-10.64,4.344-21.168,7.384-31.536l13.864-48.76h17.432l-31.28,97.104h-16l-14.872-46.36
		c-3.416-10.48-6.296-21.12-8.616-31.896h-0.408c-2.328,10.856-5.288,21.568-8.864,32.08l-15.632,46.152h-16.072l-29.272-97.072
		h18.096L318.112,286.24z"/>
</g>
<g>
	<path style="fill:#415E72;" d="M366.44,462.256c-41.768-0.072-80.984-20.08-105.56-53.848l11.608-8.448
		c37.592,51.88,110.12,63.464,161.992,25.872s63.464-110.12,25.872-161.992s-110.12-63.464-161.992-25.872
		c-14.288,10.352-26.024,23.832-34.32,39.4l-12.656-6.768c33.832-63.576,112.792-87.688,176.376-53.864
		s87.688,112.792,53.864,176.376C458.96,435.688,414.664,462.28,366.44,462.256z"/>
	<polygon style="fill:#415E72;" points="501.864,497.032 440.72,435.76 450.872,425.624 512,486.896 	"/>
</g>
</svg>